STARTFONT 2.1
COMMENT  (c) Copyright Bigelow & Holmes 1986, 1985. Lucida is a registered
COMMENT  trademark of Bigelow & Holmes. See LEGAL NOTICE file for terms 
COMMENT  of the license. 
FONT -B&H-LucidaTypewriter-Medium-R-Normal-Sans-19-190-75-75-M-110-ISO8859-1
SIZE 19 72 72
FONTBOUNDINGBOX 14 22 -1 -4
STARTPROPERTIES 19
COMMENT Begin LogicalFontDescription
FONTNAME_REGISTRY ""
FOUNDRY "B&H"
FAMILY_NAME "LucidaTypewriter"
WEIGHT_NAME "Medium"
SLANT "R"
SETWIDTH_NAME "Normal"
ADD_STYLE_NAME "Sans"
PIXEL_SIZE 19
POINT_SIZE 190
RESOLUTION_X 75
RESOLUTION_Y 75
SPACING "M"
AVERAGE_WIDTH "110"
CHARSET_REGISTRY "ISO8859"
CHARSET_ENCODING "1"
COMMENT END LogicalFontDescription
COPYRIGHT "Copyright Bigelow & Holmes 1986, 1985."
FONT_ASCENT 17
FONT_DESCENT 4
DEFAULT_CHAR 32
ENDPROPERTIES
CHARS 228
STARTCHAR space
ENCODING 32
SWIDTH 42 0
DWIDTH 11 0
BBX 1 1 0 0
BITMAP
00
ENDCHAR
STARTCHAR exclam
ENCODING 33
SWIDTH 42 0
DWIDTH 11 0
BBX 2 14 5 0
BITMAP
C0
C0
C0
C0
C0
C0
80
80
80
80
00
00
80
80
ENDCHAR
STARTCHAR quotedbl
ENCODING 34
SWIDTH 42 0
DWIDTH 11 0
BBX 6 5 3 9
BITMAP
CC
CC
CC
84
84
ENDCHAR
STARTCHAR numbersign
ENCODING 35
SWIDTH 42 0
DWIDTH 11 0
BBX 11 14 0 0
BITMAP
04C0
0C80
0880
0880
7FE0
1100
1100
1100
FFC0
2200
2200
2200
2400
4400
ENDCHAR
STARTCHAR dollar
ENCODING 36
SWIDTH 42 0
DWIDTH 11 0
BBX 7 17 2 -2
BITMAP
10
7E
D2
D0
D0
D0
70
38
1C
1E
16
16
16
DC
FC
10
10
ENDCHAR
STARTCHAR percent
ENCODING 37
SWIDTH 42 0
DWIDTH 11 0
BBX 10 14 1 0
BITMAP
70C0
D880
8900
8900
DA00
7600
0400
0B80
1EC0
1440
2440
2440
46C0
C380
ENDCHAR
STARTCHAR ampersand
ENCODING 38
SWIDTH 42 0
DWIDTH 11 0
BBX 11 14 0 0
BITMAP
1E00
3300
3300
3300
3600
1C00
3800
4C60
CE60
C640
C7C0
C380
6380
3EE0
ENDCHAR
STARTCHAR quoteright
ENCODING 39
SWIDTH 42 0
DWIDTH 11 0
BBX 3 5 4 9
BITMAP
E0
E0
20
60
C0
ENDCHAR
STARTCHAR parenleft
ENCODING 40
SWIDTH 42 0
DWIDTH 11 0
BBX 7 17 3 -3
BITMAP
0E
1C
30
60
60
C0
C0
C0
C0
C0
C0
40
60
20
30
1C
06
ENDCHAR
STARTCHAR parenright
ENCODING 41
SWIDTH 42 0
DWIDTH 11 0
BBX 7 17 1 -3
BITMAP
C0
70
18
0C
0C
06
06
06
06
06
06
06
0C
0C
18
70
C0
ENDCHAR
STARTCHAR asterisk
ENCODING 42
SWIDTH 42 0
DWIDTH 11 0
BBX 8 8 2 6
BITMAP
18
18
DB
E7
00
3C
66
24
ENDCHAR
STARTCHAR plus
ENCODING 43
SWIDTH 42 0
DWIDTH 11 0
BBX 9 10 1 0
BITMAP
0800
0800
0800
0800
FF80
0800
0800
0800
0800
0800
ENDCHAR
STARTCHAR comma
ENCODING 44
SWIDTH 42 0
DWIDTH 11 0
BBX 3 7 4 -4
BITMAP
E0
E0
E0
20
60
60
C0
ENDCHAR
STARTCHAR minus
ENCODING 45
SWIDTH 42 0
DWIDTH 11 0
BBX 10 1 1 4
BITMAP
FFC0
ENDCHAR
STARTCHAR period
ENCODING 46
SWIDTH 42 0
DWIDTH 11 0
BBX 3 2 4 0
BITMAP
E0
E0
ENDCHAR
STARTCHAR slash
ENCODING 47
SWIDTH 42 0
DWIDTH 11 0
BBX 10 17 1 -3
BITMAP
00C0
0080
0180
0100
0300
0200
0600
0400
0C00
0800
1800
1000
3000
2000
6000
4000
C000
ENDCHAR
STARTCHAR zero
ENCODING 48
SWIDTH 42 0
DWIDTH 11 0
BBX 9 14 1 0
BITMAP
1C00
6300
6300
C180
C180
C180
C180
C180
C180
C180
C180
6300
6300
1C00
ENDCHAR
STARTCHAR one
ENCODING 49
SWIDTH 42 0
DWIDTH 11 0
BBX 10 14 1 0
BITMAP
0400
7C00
8C00
0C00
0C00
0C00
0C00
0C00
0C00
0C00
0C00
0C00
0C00
FFC0
ENDCHAR
STARTCHAR two
ENCODING 50
SWIDTH 42 0
DWIDTH 11 0
BBX 8 14 1 0
BITMAP
7C
86
03
03
03
03
06
0C
18
30
60
60
C0
FF
ENDCHAR
STARTCHAR three
ENCODING 51
SWIDTH 42 0
DWIDTH 11 0
BBX 8 14 2 0
BITMAP
FC
87
03
03
03
06
78
0E
03
03
03
03
86
FC
ENDCHAR
STARTCHAR four
ENCODING 52
SWIDTH 42 0
DWIDTH 11 0
BBX 10 14 1 0
BITMAP
0300
0700
0700
0B00
1300
3300
2300
4300
C300
FFC0
0300
0300
0300
0300
ENDCHAR
STARTCHAR five
ENCODING 53
SWIDTH 42 0
DWIDTH 11 0
BBX 7 14 3 0
BITMAP
FE
80
80
80
80
F0
1C
0C
06
06
06
06
8C
F8
ENDCHAR
STARTCHAR six
ENCODING 54
SWIDTH 42 0
DWIDTH 11 0
BBX 9 14 1 0
BITMAP
1F00
3100
6000
4000
C000
DE00
E300
C180
C180
C180
C180
4180
6300
1E00
ENDCHAR
STARTCHAR seven
ENCODING 55
SWIDTH 42 0
DWIDTH 11 0
BBX 8 14 2 0
BITMAP
FF
FF
02
02
04
04
08
08
10
10
30
20
60
60
ENDCHAR
STARTCHAR eight
ENCODING 56
SWIDTH 42 0
DWIDTH 11 0
BBX 9 14 1 0
BITMAP
1E00
3300
6100
6100
7300
3E00
1C00
2F00
4380
C180
C180
C180
6300
3E00
ENDCHAR
STARTCHAR nine
ENCODING 57
SWIDTH 42 0
DWIDTH 11 0
BBX 9 14 1 0
BITMAP
3C00
6300
C100
C180
C180
C180
C180
6380
3D80
0180
0100
0300
4600
7C00
ENDCHAR
STARTCHAR colon
ENCODING 58
SWIDTH 42 0
DWIDTH 11 0
BBX 2 10 5 0
BITMAP
C0
C0
00
00
00
00
00
00
C0
C0
ENDCHAR
STARTCHAR semicolon
ENCODING 59
SWIDTH 42 0
DWIDTH 11 0
BBX 2 14 5 -4
BITMAP
C0
C0
00
00
00
00
00
C0
C0
C0
40
40
40
80
ENDCHAR
STARTCHAR less
ENCODING 60
SWIDTH 42 0
DWIDTH 11 0
BBX 10 10 1 0
BITMAP
0040
01C0
0700
1C00
F000
7000
1C00
0700
01C0
0040
ENDCHAR
STARTCHAR equal
ENCODING 61
SWIDTH 42 0
DWIDTH 11 0
BBX 10 5 1 2
BITMAP
FFC0
0000
0000
0000
FFC0
ENDCHAR
STARTCHAR greater
ENCODING 62
SWIDTH 42 0
DWIDTH 11 0
BBX 10 10 1 0
BITMAP
8000
E000
3800
0E00
0380
03C0
0E00
3800
E000
8000
ENDCHAR
STARTCHAR question
ENCODING 63
SWIDTH 42 0
DWIDTH 11 0
BBX 9 14 1 0
BITMAP
FE00
8300
8180
0180
0100
0200
0400
0800
1800
1800
0000
0000
1800
1800
ENDCHAR
STARTCHAR at
ENCODING 64
SWIDTH 42 0
DWIDTH 11 0
BBX 11 14 1 0
BITMAP
0F80
30C0
6040
43C0
8440
8840
8840
88C0
88C0
89C0
4760
4000
3080
1F00
ENDCHAR
STARTCHAR A
ENCODING 65
SWIDTH 42 0
DWIDTH 11 0
BBX 11 14 0 0
BITMAP
0600
0E00
0E00
0B00
1300
1300
1180
2180
2180
3FC0
40C0
40C0
4060
8060
ENDCHAR
STARTCHAR B
ENCODING 66
SWIDTH 42 0
DWIDTH 11 0
BBX 9 14 1 0
BITMAP
FE00
C700
C300
C300
C300
C600
FC00
C600
C300
C180
C180
C180
C300
FE00
ENDCHAR
STARTCHAR C
ENCODING 67
SWIDTH 42 0
DWIDTH 11 0
BBX 10 14 1 0
BITMAP
0FC0
3840
6000
6000
C000
C000
C000
C000
C000
C000
6000
6000
3840
0FC0
ENDCHAR
STARTCHAR D
ENCODING 68
SWIDTH 42 0
DWIDTH 11 0
BBX 10 14 1 0
BITMAP
FE00
C300
C180
C0C0
C0C0
C0C0
C0C0
C0C0
C0C0
C0C0
C180
C180
C300
FE00
ENDCHAR
STARTCHAR E
ENCODING 69
SWIDTH 42 0
DWIDTH 11 0
BBX 9 14 2 0
BITMAP
FF80
C000
C000
C000
C000
C000
FF00
C000
C000
C000
C000
C000
C000
FF80
ENDCHAR
STARTCHAR F
ENCODING 70
SWIDTH 42 0
DWIDTH 11 0
BBX 9 14 2 0
BITMAP
FF80
C000
C000
C000
C000
C000
FF00
C000
C000
C000
C000
C000
C000
C000
ENDCHAR
STARTCHAR G
ENCODING 71
SWIDTH 42 0
DWIDTH 11 0
BBX 10 14 1 0
BITMAP
0FC0
3040
6000
6000
C000
C000
C000
C000
C0C0
C0C0
60C0
60C0
38C0
0FC0
ENDCHAR
STARTCHAR H
ENCODING 72
SWIDTH 42 0
DWIDTH 11 0
BBX 9 14 1 0
BITMAP
C180
C180
C180
C180
C180
C180
FF80
C180
C180
C180
C180
C180
C180
C180
ENDCHAR
STARTCHAR I
ENCODING 73
SWIDTH 42 0
DWIDTH 11 0
BBX 8 14 2 0
BITMAP
FF
18
18
18
18
18
18
18
18
18
18
18
18
FF
ENDCHAR
STARTCHAR J
ENCODING 74
SWIDTH 42 0
DWIDTH 11 0
BBX 7 14 2 0
BITMAP
7E
06
06
06
06
06
06
06
06
06
06
06
8C
F8
ENDCHAR
STARTCHAR K
ENCODING 75
SWIDTH 42 0
DWIDTH 11 0
BBX 10 14 1 0
BITMAP
C180
C300
C200
C400
C800
D800
D000
F800
DC00
CE00
C600
C300
C380
C1C0
ENDCHAR
STARTCHAR L
ENCODING 76
SWIDTH 42 0
DWIDTH 11 0
BBX 8 14 2 0
BITMAP
C0
C0
C0
C0
C0
C0
C0
C0
C0
C0
C0
C0
C0
FF
ENDCHAR
STARTCHAR M
ENCODING 77
SWIDTH 42 0
DWIDTH 11 0
BBX 10 14 1 0
BITMAP
C0C0
C0C0
E1C0
A140
A140
A140
9240
9240
9240
9240
8C40
8C40
8C40
8040
ENDCHAR
STARTCHAR N
ENCODING 78
SWIDTH 42 0
DWIDTH 11 0
BBX 9 14 1 0
BITMAP
C080
E080
E080
F080
B080
9880
9880
8C80
8E80
8680
8780
8380
8180
8180
ENDCHAR
STARTCHAR O
ENCODING 79
SWIDTH 42 0
DWIDTH 11 0
BBX 10 14 1 0
BITMAP
1E00
3300
6180
4080
C0C0
C0C0
C0C0
C0C0
C0C0
C0C0
4080
6180
3300
1E00
ENDCHAR
STARTCHAR P
ENCODING 80
SWIDTH 42 0
DWIDTH 11 0
BBX 9 14 2 0
BITMAP
FE00
C380
C180
C180
C180
C180
C300
FC00
C000
C000
C000
C000
C000
C000
ENDCHAR
STARTCHAR Q
ENCODING 81
SWIDTH 42 0
DWIDTH 11 0
BBX 11 18 1 -4
BITMAP
1E00
3300
6180
4080
C0C0
C0C0
C0C0
C0C0
C0C0
C0C0
40C0
6180
3380
1F00
0200
0100
00E0
0040
ENDCHAR
STARTCHAR R
ENCODING 82
SWIDTH 42 0
DWIDTH 11 0
BBX 10 14 1 0
BITMAP
FC00
C700
C300
C300
C300
C700
FE00
CC00
CC00
C600
C700
C300
C180
C1C0
ENDCHAR
STARTCHAR S
ENCODING 83
SWIDTH 42 0
DWIDTH 11 0
BBX 9 14 1 0
BITMAP
3F00
6100
C000
C000
E000
7000
3C00
0F00
0380
0180
0180
0180
8300
7E00
ENDCHAR
STARTCHAR T
ENCODING 84
SWIDTH 42 0
DWIDTH 11 0
BBX 12 14 0 0
BITMAP
FFF0
0600
0600
0600
0600
0600
0600
0600
0600
0600
0600
0600
0600
0600
ENDCHAR
STARTCHAR U
ENCODING 85
SWIDTH 42 0
DWIDTH 11 0
BBX 9 14 1 0
BITMAP
C080
C080
C080
C080
C080
C080
C080
C080
C080
C080
C080
C080
6100
3E00
ENDCHAR
STARTCHAR V
ENCODING 86
SWIDTH 42 0
DWIDTH 11 0
BBX 11 14 0 0
BITMAP
C020
C040
6040
6040
6080
3080
3080
3100
1900
1900
1A00
0E00
0E00
0C00
ENDCHAR
STARTCHAR W
ENCODING 87
SWIDTH 42 0
DWIDTH 11 0
BBX 11 14 0 0
BITMAP
8020
8C20
8C20
8C60
9E40
DE40
DA40
5240
52C0
53C0
73C0
7180
6180
6180
ENDCHAR
STARTCHAR X
ENCODING 88
SWIDTH 42 0
DWIDTH 11 0
BBX 11 14 0 0
BITMAP
E040
60C0
3080
3900
1B00
0E00
0E00
0E00
0F00
1300
3180
21C0
40C0
C060
ENDCHAR
STARTCHAR Y
ENCODING 89
SWIDTH 42 0
DWIDTH 11 0
BBX 12 14 0 0
BITMAP
E030
6020
7040
3080
1880
1D00
0F00
0600
0600
0600
0600
0600
0600
0600
ENDCHAR
STARTCHAR Z
ENCODING 90
SWIDTH 42 0
DWIDTH 11 0
BBX 10 14 1 0
BITMAP
FFC0
01C0
0180
0380
0700
0600
0E00
1C00
1800
3000
7000
6000
C000
FFC0
ENDCHAR
STARTCHAR bracketleft
ENCODING 91
SWIDTH 42 0
DWIDTH 11 0
BBX 5 17 4 -3
BITMAP
F8
80
80
80
80
80
80
80
80
80
80
80
80
80
80
80
F8
ENDCHAR
STARTCHAR backslash
ENCODING 92
SWIDTH 42 0
DWIDTH 11 0
BBX 10 17 1 -3
BITMAP
C000
4000
6000
2000
3000
1000
1800
0800
0C00
0400
0600
0200
0300
0100
0180
0080
00C0
ENDCHAR
STARTCHAR bracketright
ENCODING 93
SWIDTH 42 0
DWIDTH 11 0
BBX 5 17 2 -3
BITMAP
F8
08
08
08
08
08
08
08
08
08
08
08
08
08
08
08
F8
ENDCHAR
STARTCHAR asciicircum
ENCODING 94
SWIDTH 42 0
DWIDTH 11 0
BBX 10 10 1 3
BITMAP
0400
0C00
0C00
1200
1200
2100
2100
4080
4080
C0C0
ENDCHAR
STARTCHAR underscore
ENCODING 95
SWIDTH 42 0
DWIDTH 11 0
BBX 11 1 0 -2
BITMAP
FFE0
ENDCHAR
STARTCHAR quoteleft
ENCODING 96
SWIDTH 42 0
DWIDTH 11 0
BBX 3 5 4 9
BITMAP
60
C0
80
E0
E0
ENDCHAR
STARTCHAR a
ENCODING 97
SWIDTH 42 0
DWIDTH 11 0
BBX 10 10 1 0
BITMAP
7E00
4300
0300
0300
3F00
6300
C300
C300
C700
7DC0
ENDCHAR
STARTCHAR b
ENCODING 98
SWIDTH 42 0
DWIDTH 11 0
BBX 9 14 1 0
BITMAP
C000
C000
C000
C000
DE00
E300
C180
C180
C180
C180
C180
C300
E300
DE00
ENDCHAR
STARTCHAR c
ENCODING 99
SWIDTH 42 0
DWIDTH 11 0
BBX 9 10 1 0
BITMAP
1F80
7080
6000
C000
C000
C000
C000
6000
7080
1F80
ENDCHAR
STARTCHAR d
ENCODING 100
SWIDTH 42 0
DWIDTH 11 0
BBX 9 14 1 0
BITMAP
0180
0180
0180
0180
3D80
6380
6180
C180
C180
C180
C180
C180
6380
3D80
ENDCHAR
STARTCHAR e
ENCODING 101
SWIDTH 42 0
DWIDTH 11 0
BBX 9 10 1 0
BITMAP
1E00
6300
4180
C180
FF80
C000
C000
4000
6080
1F80
ENDCHAR
STARTCHAR f
ENCODING 102
SWIDTH 42 0
DWIDTH 11 0
BBX 10 15 1 0
BITMAP
0FC0
1C00
1800
1800
1800
FFC0
1800
1800
1800
1800
1800
1800
1800
1800
1800
ENDCHAR
STARTCHAR g
ENCODING 103
SWIDTH 42 0
DWIDTH 11 0
BBX 9 14 1 -4
BITMAP
1E80
6380
6180
C180
C180
C180
C180
C180
6380
3D80
0180
0180
4300
7E00
ENDCHAR
STARTCHAR h
ENCODING 104
SWIDTH 42 0
DWIDTH 11 0
BBX 8 14 2 0
BITMAP
C0
C0
C0
C0
CE
DF
E3
C3
C3
C3
C3
C3
C3
C3
ENDCHAR
STARTCHAR i
ENCODING 105
SWIDTH 42 0
DWIDTH 11 0
BBX 6 14 1 0
BITMAP
0C
0C
00
00
FC
0C
0C
0C
0C
0C
0C
0C
0C
0C
ENDCHAR
STARTCHAR j
ENCODING 106
SWIDTH 42 0
DWIDTH 11 0
BBX 7 18 1 -4
BITMAP
06
06
00
00
7E
06
06
06
06
06
06
06
06
06
06
06
8E
FC
ENDCHAR
STARTCHAR k
ENCODING 107
SWIDTH 42 0
DWIDTH 11 0
BBX 9 14 2 0
BITMAP
C000
C000
C000
C000
C300
C400
CC00
D800
D000
F800
DC00
CE00
C700
C380
ENDCHAR
STARTCHAR l
ENCODING 108
SWIDTH 42 0
DWIDTH 11 0
BBX 6 14 1 0
BITMAP
FC
0C
0C
0C
0C
0C
0C
0C
0C
0C
0C
0C
0C
0C
ENDCHAR
STARTCHAR m
ENCODING 109
SWIDTH 42 0
DWIDTH 11 0
BBX 11 10 0 0
BITMAP
B9E0
E720
C620
8420
8420
8420
8420
8420
8420
8420
ENDCHAR
STARTCHAR n
ENCODING 110
SWIDTH 42 0
DWIDTH 11 0
BBX 8 10 2 0
BITMAP
CE
DF
E3
C3
C3
C3
C3
C3
C3
C3
ENDCHAR
STARTCHAR o
ENCODING 111
SWIDTH 42 0
DWIDTH 11 0
BBX 10 10 1 0
BITMAP
1E00
6180
6180
C0C0
C0C0
C0C0
C0C0
6180
6180
1E00
ENDCHAR
STARTCHAR p
ENCODING 112
SWIDTH 42 0
DWIDTH 11 0
BBX 9 14 2 -4
BITMAP
DE00
E300
C180
C180
C180
C180
C180
C300
E300
DE00
C000
C000
C000
C000
ENDCHAR
STARTCHAR q
ENCODING 113
SWIDTH 42 0
DWIDTH 11 0
BBX 9 14 1 -4
BITMAP
3D80
6380
6180
C180
C180
C180
C180
C180
6380
3D80
0180
0180
0180
0180
ENDCHAR
STARTCHAR r
ENCODING 114
SWIDTH 42 0
DWIDTH 11 0
BBX 8 10 3 0
BITMAP
DF
F1
E1
C0
C0
C0
C0
C0
C0
C0
ENDCHAR
STARTCHAR s
ENCODING 115
SWIDTH 42 0
DWIDTH 11 0
BBX 8 10 2 0
BITMAP
3E
C2
C0
E0
7C
1F
07
03
86
FC
ENDCHAR
STARTCHAR t
ENCODING 116
SWIDTH 42 0
DWIDTH 11 0
BBX 10 13 1 0
BITMAP
1800
1800
1800
FFC0
1800
1800
1800
1800
1800
1800
1800
1C00
0FC0
ENDCHAR
STARTCHAR u
ENCODING 117
SWIDTH 42 0
DWIDTH 11 0
BBX 8 10 2 0
BITMAP
C3
C3
C3
C3
C3
C3
C3
C7
FB
73
ENDCHAR
STARTCHAR v
ENCODING 118
SWIDTH 42 0
DWIDTH 11 0
BBX 10 10 1 0
BITMAP
C0C0
E080
6080
6100
3100
3200
3A00
1A00
1C00
0C00
ENDCHAR
STARTCHAR w
ENCODING 119
SWIDTH 42 0
DWIDTH 11 0
BBX 11 10 0 0
BITMAP
C020
C420
CA40
6A40
6A40
6A40
71C0
7180
7180
3180
ENDCHAR
STARTCHAR x
ENCODING 120
SWIDTH 42 0
DWIDTH 11 0
BBX 10 10 1 0
BITMAP
E080
7100
3300
1A00
1C00
0E00
1600
2300
6380
C1C0
ENDCHAR
STARTCHAR y
ENCODING 121
SWIDTH 42 0
DWIDTH 11 0
BBX 10 14 1 -4
BITMAP
C0C0
E080
6080
6100
3100
3200
1A00
1A00
1C00
0C00
0800
0800
1000
6000
ENDCHAR
STARTCHAR z
ENCODING 122
SWIDTH 42 0
DWIDTH 11 0
BBX 9 10 1 0
BITMAP
FF80
0100
0200
0400
0C00
1800
3000
2000
4000
FF80
ENDCHAR
STARTCHAR braceleft
ENCODING 123
SWIDTH 42 0
DWIDTH 11 0
BBX 7 17 2 -3
BITMAP
1E
30
30
30
10
10
10
30
C0
30
10
10
30
30
30
30
1E
ENDCHAR
STARTCHAR bar
ENCODING 124
SWIDTH 42 0
DWIDTH 11 0
BBX 1 17 5 -3
BITMAP
80
80
80
80
80
80
80
80
80
80
80
80
80
80
80
80
80
ENDCHAR
STARTCHAR braceright
ENCODING 125
SWIDTH 42 0
DWIDTH 11 0
BBX 7 17 2 -3
BITMAP
F0
18
18
18
18
10
10
18
0E
18
10
10
18
18
18
18
F0
ENDCHAR
STARTCHAR asciitilde
ENCODING 126
SWIDTH 42 0
DWIDTH 11 0
BBX 10 4 1 3
BITMAP
7040
4840
8480
8380
ENDCHAR
STARTCHAR exclamdown
ENCODING 161
SWIDTH 42 0
DWIDTH 11 0
BBX 2 14 5 -4
BITMAP
80
80
00
00
80
80
80
80
C0
C0
C0
C0
C0
C0
ENDCHAR
STARTCHAR cent
ENCODING 162
SWIDTH 42 0
DWIDTH 11 0
BBX 7 14 2 0
BITMAP
08
08
3E
6A
E8
C8
C8
C8
C8
48
6A
3E
08
08
ENDCHAR
STARTCHAR sterling
ENCODING 163
SWIDTH 42 0
DWIDTH 11 0
BBX 8 14 2 0
BITMAP
0F
10
30
30
30
30
FC
30
30
30
30
60
E0
FF
ENDCHAR
STARTCHAR currency
ENCODING 164
SWIDTH 42 0
DWIDTH 11 0
BBX 9 10 1 2
BITMAP
8080
4100
7F00
6300
4100
4100
4100
6300
7F00
8080
ENDCHAR
STARTCHAR yen
ENCODING 165
SWIDTH 42 0
DWIDTH 11 0
BBX 11 14 0 0
BITMAP
C060
60C0
7080
3100
1B00
1E00
0C00
3F80
0C00
3F80
0C00
0C00
0C00
0C00
ENDCHAR
STARTCHAR brokenbar
ENCODING 166
SWIDTH 42 0
DWIDTH 11 0
BBX 1 17 5 -3
BITMAP
80
80
80
80
80
80
80
00
00
00
80
80
80
80
80
80
80
ENDCHAR
STARTCHAR section
ENCODING 167
SWIDTH 42 0
DWIDTH 11 0
BBX 7 18 2 -4
BITMAP
3E
42
80
80
E0
F0
F8
8C
84
C4
E4
78
3C
0E
06
06
8C
F8
ENDCHAR
STARTCHAR dieresis
ENCODING 168
SWIDTH 42 0
DWIDTH 11 0
BBX 5 1 3 13
BITMAP
98
ENDCHAR
STARTCHAR copyright
ENCODING 169
SWIDTH 42 0
DWIDTH 11 0
BBX 10 14 1 0
BITMAP
1F00
2180
4080
8F40
9140
A040
A040
A040
A040
9140
8E40
4080
6100
3E00
ENDCHAR
STARTCHAR ordfeminine
ENCODING 170
SWIDTH 42 0
DWIDTH 11 0
BBX 7 8 2 6
BITMAP
78
84
04
7C
84
84
8C
76
ENDCHAR
STARTCHAR guillemotleft
ENCODING 171
SWIDTH 42 0
DWIDTH 11 0
BBX 9 8 1 1
BITMAP
0880
1100
2200
CC00
4400
2200
1100
0880
ENDCHAR
STARTCHAR logicalnot
ENCODING 172
SWIDTH 42 0
DWIDTH 11 0
BBX 10 4 1 3
BITMAP
FFC0
0040
0040
0040
ENDCHAR
STARTCHAR hyphen
ENCODING 173
SWIDTH 42 0
DWIDTH 11 0
BBX 8 1 2 6
BITMAP
FF
ENDCHAR
STARTCHAR registered
ENCODING 174
SWIDTH 42 0
DWIDTH 11 0
BBX 7 8 2 6
BITMAP
38
44
BA
AA
B2
AA
44
38
ENDCHAR
STARTCHAR macron
ENCODING 175
SWIDTH 42 0
DWIDTH 11 0
BBX 5 1 3 13
BITMAP
F8
ENDCHAR
STARTCHAR degree
ENCODING 176
SWIDTH 42 0
DWIDTH 11 0
BBX 3 3 4 11
BITMAP
E0
A0
E0
ENDCHAR
STARTCHAR plusminus
ENCODING 177
SWIDTH 42 0
DWIDTH 11 0
BBX 9 10 1 0
BITMAP
0800
0800
0800
FF80
0800
0800
0800
0800
0000
FF80
ENDCHAR
STARTCHAR twosuperior
ENCODING 178
SWIDTH 42 0
DWIDTH 11 0
BBX 4 7 -1 7
BITMAP
E0
10
10
20
40
80
F0
ENDCHAR
STARTCHAR threesuperior
ENCODING 179
SWIDTH 42 0
DWIDTH 11 0
BBX 4 7 -1 7
BITMAP
E0
10
10
60
10
10
E0
ENDCHAR
STARTCHAR acute
ENCODING 180
SWIDTH 42 0
DWIDTH 11 0
BBX 4 2 3 12
BITMAP
70
C0
ENDCHAR
STARTCHAR mu
ENCODING 181
SWIDTH 42 0
DWIDTH 11 0
BBX 8 13 2 -3
BITMAP
C3
C3
C3
C3
C3
C3
C3
C7
FB
FB
C0
C0
C0
ENDCHAR
STARTCHAR paragraph
ENCODING 182
SWIDTH 42 0
DWIDTH 11 0
BBX 7 17 2 -3
BITMAP
7E
FA
FA
FA
FA
7A
3A
0A
0A
0A
0A
0A
0A
0A
0A
0A
0A
ENDCHAR
STARTCHAR periodcentered
ENCODING 183
SWIDTH 42 0
DWIDTH 11 0
BBX 2 2 5 4
BITMAP
C0
C0
ENDCHAR
STARTCHAR cedilla
ENCODING 184
SWIDTH 42 0
DWIDTH 11 0
BBX 3 4 5 -4
BITMAP
C0
40
20
E0
ENDCHAR
STARTCHAR onesuperior
ENCODING 185
SWIDTH 42 0
DWIDTH 11 0
BBX 5 7 -1 7
BITMAP
E0
A0
20
20
20
20
F8
ENDCHAR
STARTCHAR ordmasculine
ENCODING 186
SWIDTH 42 0
DWIDTH 11 0
BBX 7 8 2 6
BITMAP
38
6C
C6
C6
C6
C6
6C
38
ENDCHAR
STARTCHAR guillemotright
ENCODING 187
SWIDTH 42 0
DWIDTH 11 0
BBX 9 8 1 1
BITMAP
8800
4400
2200
1100
1980
2200
4400
8800
ENDCHAR
STARTCHAR onequarter
ENCODING 188
SWIDTH 42 0
DWIDTH 11 0
BBX 11 14 2 0
BITMAP
E060
A040
2080
2100
2100
2200
FC00
04C0
08C0
1140
1240
23E0
4040
C040
ENDCHAR
STARTCHAR onehalf
ENCODING 189
SWIDTH 42 0
DWIDTH 11 0
BBX 11 14 2 0
BITMAP
E060
A040
2080
2100
2100
2200
FC00
05C0
0820
1020
1040
2080
4100
C1E0
ENDCHAR
STARTCHAR threequarters
ENCODING 190
SWIDTH 42 0
DWIDTH 11 0
BBX 11 14 2 0
BITMAP
E060
1040
1080
6100
1100
1200
E400
04C0
08C0
1140
1240
23E0
4040
C040
ENDCHAR
STARTCHAR questiondown
ENCODING 191
SWIDTH 42 0
DWIDTH 11 0
BBX 9 14 1 -4
BITMAP
0C00
0C00
0000
0000
0C00
0C00
0800
1000
2000
4000
C000
C080
6080
3F80
ENDCHAR
STARTCHAR Agrave
ENCODING 192
SWIDTH 42 0
DWIDTH 11 0
BBX 11 17 0 0
BITMAP
0E00
0300
0000
0600
0E00
0E00
0B00
1300
1300
1180
2180
2180
3FC0
40C0
40C0
4060
8060
ENDCHAR
STARTCHAR Aacute
ENCODING 193
SWIDTH 42 0
DWIDTH 11 0
BBX 11 17 0 0
BITMAP
0E00
1800
0000
0600
0E00
0E00
0B00
1300
1300
1180
2180
2180
3FC0
40C0
40C0
4060
8060
ENDCHAR
STARTCHAR Acircumflex
ENCODING 194
SWIDTH 42 0
DWIDTH 11 0
BBX 11 17 0 0
BITMAP
1E00
3300
0000
0600
0E00
0E00
0B00
1300
1300
1180
2180
2180
3FC0
40C0
40C0
4060
8060
ENDCHAR
STARTCHAR Atilde
ENCODING 195
SWIDTH 42 0
DWIDTH 11 0
BBX 11 17 0 0
BITMAP
3D00
2F00
0000
0600
0E00
0E00
0B00
1300
1300
1180
2180
2180
3FC0
40C0
40C0
4060
8060
ENDCHAR
STARTCHAR Adieresis
ENCODING 196
SWIDTH 42 0
DWIDTH 11 0
BBX 11 16 0 0
BITMAP
1300
0000
0600
0E00
0E00
0B00
1300
1300
1180
2180
2180
3FC0
40C0
40C0
4060
8060
ENDCHAR
STARTCHAR Aring
ENCODING 197
SWIDTH 42 0
DWIDTH 11 0
BBX 11 18 0 0
BITMAP
0E00
0A00
0E00
0000
0600
0E00
0E00
0B00
1300
1300
1180
2180
2180
3FC0
40C0
40C0
4060
8060
ENDCHAR
STARTCHAR AE
ENCODING 198
SWIDTH 42 0
DWIDTH 11 0
BBX 12 14 0 0
BITMAP
03E0
0700
0700
0700
0B00
0B00
1300
13E0
1300
2300
3F00
4300
4300
C3F0
ENDCHAR
STARTCHAR Ccedilla
ENCODING 199
SWIDTH 42 0
DWIDTH 11 0
BBX 10 18 1 -4
BITMAP
0FC0
3840
6000
6000
C000
C000
C000
C000
C000
C000
6000
6000
3840
0FC0
0400
0400
0200
0E00
ENDCHAR
STARTCHAR Egrave
ENCODING 200
SWIDTH 42 0
DWIDTH 11 0
BBX 9 17 2 0
BITMAP
3800
0C00
0000
FF80
C000
C000
C000
C000
C000
FF00
C000
C000
C000
C000
C000
C000
FF80
ENDCHAR
STARTCHAR Eacute
ENCODING 201
SWIDTH 42 0
DWIDTH 11 0
BBX 9 17 2 0
BITMAP
1C00
3000
0000
FF80
C000
C000
C000
C000
C000
FF00
C000
C000
C000
C000
C000
C000
FF80
ENDCHAR
STARTCHAR Ecircumflex
ENCODING 202
SWIDTH 42 0
DWIDTH 0 0
BBX 0 0 0 0
BITMAP
ENDCHAR
STARTCHAR Edieresis
ENCODING 203
SWIDTH 42 0
DWIDTH 11 0
BBX 9 16 2 0
BITMAP
4C00
0000
FF80
C000
C000
C000
C000
C000
FF00
C000
C000
C000
C000
C000
C000
FF80
ENDCHAR
STARTCHAR Igrave
ENCODING 204
SWIDTH 42 0
DWIDTH 11 0
BBX 8 17 2 0
BITMAP
38
0C
00
FF
18
18
18
18
18
18
18
18
18
18
18
18
FF
ENDCHAR
STARTCHAR Iacute
ENCODING 205
SWIDTH 42 0
DWIDTH 11 0
BBX 8 17 2 0
BITMAP
1C
30
00
FF
18
18
18
18
18
18
18
18
18
18
18
18
FF
ENDCHAR
STARTCHAR Icircumflex
ENCODING 206
SWIDTH 42 0
DWIDTH 11 0
BBX 8 17 2 0
BITMAP
3C
66
00
FF
18
18
18
18
18
18
18
18
18
18
18
18
FF
ENDCHAR
STARTCHAR Idieresis
ENCODING 207
SWIDTH 42 0
DWIDTH 11 0
BBX 8 16 2 0
BITMAP
4C
00
FF
18
18
18
18
18
18
18
18
18
18
18
18
FF
ENDCHAR
STARTCHAR Eth
ENCODING 208
SWIDTH 42 0
DWIDTH 11 0
BBX 11 14 0 0
BITMAP
7F00
6180
60C0
6060
6060
6060
F860
6060
6060
6060
60C0
60C0
6180
7F00
ENDCHAR
STARTCHAR Ntilde
ENCODING 209
SWIDTH 42 0
DWIDTH 11 0
BBX 9 17 1 0
BITMAP
3D00
2F00
0000
C080
E080
E080
F080
B080
9880
9880
8C80
8E80
8680
8780
8380
8180
8180
ENDCHAR
STARTCHAR Ograve
ENCODING 210
SWIDTH 42 0
DWIDTH 11 0
BBX 10 17 1 0
BITMAP
1C00
0600
0000
1E00
3300
6180
4080
C0C0
C0C0
C0C0
C0C0
C0C0
C0C0
4080
6180
3300
1E00
ENDCHAR
STARTCHAR Oacute
ENCODING 211
SWIDTH 42 0
DWIDTH 11 0
BBX 10 17 1 0
BITMAP
0E00
1800
0000
1E00
3300
6180
4080
C0C0
C0C0
C0C0
C0C0
C0C0
C0C0
4080
6180
3300
1E00
ENDCHAR
STARTCHAR Ocircumflex
ENCODING 212
SWIDTH 42 0
DWIDTH 11 0
BBX 10 17 1 0
BITMAP
1E00
3300
0000
1E00
3300
6180
4080
C0C0
C0C0
C0C0
C0C0
C0C0
C0C0
4080
6180
3300
1E00
ENDCHAR
STARTCHAR Otilde
ENCODING 213
SWIDTH 42 0
DWIDTH 11 0
BBX 10 17 1 0
BITMAP
3D00
2F00
0000
1E00
3300
6180
4080
C0C0
C0C0
C0C0
C0C0
C0C0
C0C0
4080
6180
3300
1E00
ENDCHAR
STARTCHAR Odieresis
ENCODING 214
SWIDTH 42 0
DWIDTH 11 0
BBX 10 16 1 0
BITMAP
2600
0000
1E00
3300
6180
4080
C0C0
C0C0
C0C0
C0C0
C0C0
C0C0
4080
6180
3300
1E00
ENDCHAR
STARTCHAR multiply
ENCODING 215
SWIDTH 42 0
DWIDTH 11 0
BBX 10 10 1 0
BITMAP
0C00
0C00
0000
0000
FFC0
0000
0000
0000
0C00
0C00
ENDCHAR
STARTCHAR Oslash
ENCODING 216
SWIDTH 42 0
DWIDTH 11 0
BBX 10 14 1 0
BITMAP
1EC0
3380
6180
4280
C2C0
C4C0
C4C0
C8C0
C8C0
D0C0
7080
6180
7300
DE00
ENDCHAR
STARTCHAR Ugrave
ENCODING 217
SWIDTH 42 0
DWIDTH 11 0
BBX 9 17 1 0
BITMAP
1C00
0600
0000
C080
C080
C080
C080
C080
C080
C080
C080
C080
C080
C080
C080
6100
3E00
ENDCHAR
STARTCHAR Uacute
ENCODING 218
SWIDTH 42 0
DWIDTH 11 0
BBX 9 17 1 0
BITMAP
1C00
3000
0000
C080
C080
C080
C080
C080
C080
C080
C080
C080
C080
C080
C080
6100
3E00
ENDCHAR
STARTCHAR Ucircumflex
ENCODING 219
SWIDTH 42 0
DWIDTH 11 0
BBX 9 17 1 0
BITMAP
3C00
6600
0000
C080
C080
C080
C080
C080
C080
C080
C080
C080
C080
C080
C080
6100
3E00
ENDCHAR
STARTCHAR Udieresis
ENCODING 220
SWIDTH 42 0
DWIDTH 11 0
BBX 9 16 1 0
BITMAP
2600
0000
C080
C080
C080
C080
C080
C080
C080
C080
C080
C080
C080
C080
6100
3E00
ENDCHAR
STARTCHAR Yacute
ENCODING 221
SWIDTH 42 0
DWIDTH 11 0
BBX 12 17 0 0
BITMAP
0700
0C00
0000
E030
6020
7040
3080
1880
1D00
0F00
0600
0600
0600
0600
0600
0600
0600
ENDCHAR
STARTCHAR Thorn
ENCODING 222
SWIDTH 42 0
DWIDTH 11 0
BBX 9 14 2 0
BITMAP
C000
C000
C000
FE00
C380
C180
C180
C180
C180
C300
FC00
C000
C000
C000
ENDCHAR
STARTCHAR germandbls
ENCODING 223
SWIDTH 42 0
DWIDTH 11 0
BBX 9 15 2 0
BITMAP
7C00
C600
C600
C600
C400
C800
C800
CC00
CE00
C700
C380
C180
C180
D180
DF00
ENDCHAR
STARTCHAR agrave
ENCODING 224
SWIDTH 42 0
DWIDTH 11 0
BBX 10 13 1 0
BITMAP
1C00
0600
0000
7E00
4300
0300
0300
3F00
6300
C300
C300
C700
7DC0
ENDCHAR
STARTCHAR aacute
ENCODING 225
SWIDTH 42 0
DWIDTH 11 0
BBX 10 13 1 0
BITMAP
1C00
3000
0000
7E00
4300
0300
0300
3F00
6300
C300
C300
C700
7DC0
ENDCHAR
STARTCHAR acircumflex
ENCODING 226
SWIDTH 42 0
DWIDTH 11 0
BBX 10 13 1 0
BITMAP
1E00
3300
0000
7E00
4300
0300
0300
3F00
6300
C300
C300
C700
7DC0
ENDCHAR
STARTCHAR atilde
ENCODING 227
SWIDTH 42 0
DWIDTH 11 0
BBX 10 13 1 0
BITMAP
3D00
2F00
0000
7E00
4300
0300
0300
3F00
6300
C300
C300
C700
7DC0
ENDCHAR
STARTCHAR adieresis
ENCODING 228
SWIDTH 42 0
DWIDTH 11 0
BBX 10 12 1 0
BITMAP
2600
0000
7E00
4300
0300
0300
3F00
6300
C300
C300
C700
7DC0
ENDCHAR
STARTCHAR aring
ENCODING 229
SWIDTH 42 0
DWIDTH 11 0
BBX 10 14 1 0
BITMAP
1C00
1400
1C00
0000
7E00
4300
0300
0300
3F00
6300
C300
C300
C700
7DC0
ENDCHAR
STARTCHAR ae
ENCODING 230
SWIDTH 42 0
DWIDTH 11 0
BBX 11 10 0 0
BITMAP
7B80
4E40
0C60
0C60
7FE0
EC00
CC00
CC00
CE20
7BE0
ENDCHAR
STARTCHAR ccedilla
ENCODING 231
SWIDTH 42 0
DWIDTH 11 0
BBX 9 14 1 -4
BITMAP
1F80
7080
6000
C000
C000
C000
C000
6000
7080
1F80
0800
0800
0400
1C00
ENDCHAR
STARTCHAR egrave
ENCODING 232
SWIDTH 42 0
DWIDTH 11 0
BBX 9 13 1 0
BITMAP
1C00
0600
0000
1E00
6300
4180
C180
FF80
C000
C000
4000
6080
1F80
ENDCHAR
STARTCHAR eacute
ENCODING 233
SWIDTH 42 0
DWIDTH 11 0
BBX 9 13 1 0
BITMAP
1C00
3000
0000
1E00
6300
4180
C180
FF80
C000
C000
4000
6080
1F80
ENDCHAR
STARTCHAR ecircumflex
ENCODING 234
SWIDTH 42 0
DWIDTH 11 0
BBX 9 13 1 0
BITMAP
3C00
6600
0000
1E00
6300
4180
C180
FF80
C000
C000
4000
6080
1F80
ENDCHAR
STARTCHAR edieresis
ENCODING 235
SWIDTH 42 0
DWIDTH 11 0
BBX 9 12 1 0
BITMAP
2600
0000
1E00
6300
4180
C180
FF80
C000
C000
4000
6080
1F80
ENDCHAR
STARTCHAR igrave
ENCODING 236
SWIDTH 42 0
DWIDTH 11 0
BBX 7 13 1 0
BITMAP
1C
06
00
FC
0C
0C
0C
0C
0C
0C
0C
0C
0C
ENDCHAR
STARTCHAR iacute
ENCODING 237
SWIDTH 42 0
DWIDTH 11 0
BBX 6 13 1 0
BITMAP
1C
30
00
FC
0C
0C
0C
0C
0C
0C
0C
0C
0C
ENDCHAR
STARTCHAR icircumflex
ENCODING 238
SWIDTH 42 0
DWIDTH 11 0
BBX 7 13 1 0
BITMAP
3C
66
00
FC
0C
0C
0C
0C
0C
0C
0C
0C
0C
ENDCHAR
STARTCHAR idieresis
ENCODING 239
SWIDTH 42 0
DWIDTH 11 0
BBX 7 12 1 0
BITMAP
26
00
FC
0C
0C
0C
0C
0C
0C
0C
0C
0C
ENDCHAR
STARTCHAR eth
ENCODING 240
SWIDTH 42 0
DWIDTH 11 0
BBX 9 14 1 0
BITMAP
FC00
1C00
6C00
4600
3F00
6300
C180
C180
C180
C180
C180
4100
6300
3E00
ENDCHAR
STARTCHAR ntilde
ENCODING 241
SWIDTH 42 0
DWIDTH 11 0
BBX 8 13 2 0
BITMAP
7A
5E
00
CE
DF
E3
C3
C3
C3
C3
C3
C3
C3
ENDCHAR
STARTCHAR ograve
ENCODING 242
SWIDTH 42 0
DWIDTH 11 0
BBX 10 13 1 0
BITMAP
1C00
0600
0000
1E00
6180
6180
C0C0
C0C0
C0C0
C0C0
6180
6180
1E00
ENDCHAR
STARTCHAR oacute
ENCODING 243
SWIDTH 42 0
DWIDTH 11 0
BBX 10 13 1 0
BITMAP
0E00
1800
0000
1E00
6180
6180
C0C0
C0C0
C0C0
C0C0
6180
6180
1E00
ENDCHAR
STARTCHAR ocircumflex
ENCODING 244
SWIDTH 42 0
DWIDTH 11 0
BBX 10 13 1 0
BITMAP
1E00
3300
0000
1E00
6180
6180
C0C0
C0C0
C0C0
C0C0
6180
6180
1E00
ENDCHAR
STARTCHAR otilde
ENCODING 245
SWIDTH 42 0
DWIDTH 11 0
BBX 10 13 1 0
BITMAP
3D00
2F00
0000
1E00
6180
6180
C0C0
C0C0
C0C0
C0C0
6180
6180
1E00
ENDCHAR
STARTCHAR odieresis
ENCODING 246
SWIDTH 42 0
DWIDTH 11 0
BBX 10 12 1 0
BITMAP
2600
0000
1E00
6180
6180
C0C0
C0C0
C0C0
C0C0
6180
6180
1E00
ENDCHAR
STARTCHAR divide
ENCODING 247
SWIDTH 42 0
DWIDTH 11 0
BBX 10 10 1 0
BITMAP
8040
4080
2100
1200
0C00
0C00
1200
2100
4080
8040
ENDCHAR
STARTCHAR oslash
ENCODING 248
SWIDTH 42 0
DWIDTH 11 0
BBX 10 10 1 0
BITMAP
1FC0
6180
63C0
C2C0
C4C0
C8C0
D0C0
F180
6180
FE00
ENDCHAR
STARTCHAR ugrave
ENCODING 249
SWIDTH 42 0
DWIDTH 11 0
BBX 8 13 2 0
BITMAP
38
0C
00
C3
C3
C3
C3
C3
C3
C3
C7
FB
73
ENDCHAR
STARTCHAR uacute
ENCODING 250
SWIDTH 42 0
DWIDTH 11 0
BBX 8 13 2 0
BITMAP
1C
30
00
C3
C3
C3
C3
C3
C3
C3
C7
FB
73
ENDCHAR
STARTCHAR ucircumflex
ENCODING 251
SWIDTH 42 0
DWIDTH 11 0
BBX 8 13 2 0
BITMAP
3C
66
00
C3
C3
C3
C3
C3
C3
C3
C7
FB
73
ENDCHAR
STARTCHAR udieresis
ENCODING 252
SWIDTH 42 0
DWIDTH 11 0
BBX 8 12 2 0
BITMAP
26
00
C3
C3
C3
C3
C3
C3
C3
C7
FB
73
ENDCHAR
STARTCHAR yacute
ENCODING 253
SWIDTH 42 0
DWIDTH 11 0
BBX 10 17 1 -4
BITMAP
0E00
1800
0000
C0C0
E080
6080
6100
3100
3200
1A00
1A00
1C00
0C00
0800
0800
1000
6000
ENDCHAR
STARTCHAR thorn
ENCODING 254
SWIDTH 42 0
DWIDTH 11 0
BBX 9 17 2 -4
BITMAP
C000
C000
C000
DE00
E300
C180
C180
C180
C180
C180
C300
E300
DE00
C000
C000
C000
C000
ENDCHAR
STARTCHAR ydieresis
ENCODING 255
SWIDTH 42 0
DWIDTH 11 0
BBX 10 16 1 -4
BITMAP
2600
0000
C0C0
E080
6080
6100
3100
3200
1A00
1A00
1C00
0C00
0800
0800
1000
6000
ENDCHAR
STARTCHAR fl
ENCODING -1
SWIDTH 42 0
DWIDTH 11 0
BBX 8 15 1 0
BITMAP
3F
63
63
63
63
FB
63
63
63
63
63
63
63
63
63
ENDCHAR
STARTCHAR endash
ENCODING -1
SWIDTH 42 0
DWIDTH 11 0
BBX 9 1 1 5
BITMAP
FF80
ENDCHAR
STARTCHAR dagger
ENCODING -1
SWIDTH 42 0
DWIDTH 11 0
BBX 7 17 2 -3
BITMAP
10
10
10
10
10
FE
10
10
10
10
10
10
10
10
10
10
10
ENDCHAR
STARTCHAR Zcaron
ENCODING -1
SWIDTH 42 0
DWIDTH 11 0
BBX 10 17 1 0
BITMAP
3300
1E00
0000
FFC0
01C0
0180
0380
0700
0600
0E00
1C00
1800
3000
7000
6000
C000
FFC0
ENDCHAR
STARTCHAR oe
ENCODING -1
SWIDTH 42 0
DWIDTH 11 0
BBX 10 10 1 0
BITMAP
3B80
4C80
CCC0
CCC0
CFC0
CC00
CC00
CC00
4E40
3BC0
ENDCHAR
STARTCHAR Ydieresis
ENCODING -1
SWIDTH 42 0
DWIDTH 11 0
BBX 12 16 0 0
BITMAP
1300
0000
E030
6020
7040
3080
1880
1D00
0F00
0600
0600
0600
0600
0600
0600
0600
ENDCHAR
STARTCHAR dotlessi
ENCODING -1
SWIDTH 42 0
DWIDTH 11 0
BBX 6 10 1 0
BITMAP
FC
0C
0C
0C
0C
0C
0C
0C
0C
0C
ENDCHAR
STARTCHAR lslash
ENCODING -1
SWIDTH 42 0
DWIDTH 11 0
BBX 8 14 2 0
BITMAP
FC
0C
0C
0C
0D
0F
0C
3C
2C
0C
0C
0C
0C
0C
ENDCHAR
STARTCHAR Lslash
ENCODING -1
SWIDTH 42 0
DWIDTH 11 0
BBX 10 14 0 0
BITMAP
3000
3000
3000
3000
3000
3400
3800
7000
B000
3000
3000
3000
3000
3FC0
ENDCHAR
STARTCHAR daggerdbl
ENCODING -1
SWIDTH 42 0
DWIDTH 11 0
BBX 7 17 2 -3
BITMAP
10
10
10
10
10
FE
10
10
10
10
10
FE
10
10
10
10
10
ENDCHAR
STARTCHAR fi
ENCODING -1
SWIDTH 42 0
DWIDTH 11 0
BBX 8 15 1 0
BITMAP
38
7B
63
60
60
FF
63
63
63
63
63
63
63
63
63
ENDCHAR
STARTCHAR guilsinglright
ENCODING -1
SWIDTH 42 0
DWIDTH 11 0
BBX 5 8 3 1
BITMAP
80
40
20
10
18
20
40
80
ENDCHAR
STARTCHAR OE
ENCODING -1
SWIDTH 42 0
DWIDTH 11 0
BBX 11 14 0 0
BITMAP
3FC0
6600
C600
C600
C600
C600
C7C0
C600
C600
C600
C600
4600
6600
3FE0
ENDCHAR
STARTCHAR emdash
ENCODING -1
SWIDTH 42 0
DWIDTH 11 0
BBX 10 1 1 5
BITMAP
FFC0
ENDCHAR
STARTCHAR caron
ENCODING -1
SWIDTH 42 0
DWIDTH 11 0
BBX 6 2 3 12
BITMAP
CC
78
ENDCHAR
STARTCHAR ogonek
ENCODING -1
SWIDTH 42 0
DWIDTH 11 0
BBX 3 3 4 -4
BITMAP
40
80
E0
ENDCHAR
STARTCHAR hungarumlaut
ENCODING -1
SWIDTH 42 0
DWIDTH 11 0
BBX 6 2 3 12
BITMAP
6C
D0
ENDCHAR
STARTCHAR guilsinglleft
ENCODING -1
SWIDTH 42 0
DWIDTH 11 0
BBX 5 8 3 1
BITMAP
08
10
20
C0
40
20
10
08
ENDCHAR
STARTCHAR dotaccent
ENCODING -1
SWIDTH 42 0
DWIDTH 11 0
BBX 2 2 5 12
BITMAP
C0
C0
ENDCHAR
STARTCHAR breve
ENCODING -1
SWIDTH 42 0
DWIDTH 11 0
BBX 6 2 3 12
BITMAP
84
78
ENDCHAR
STARTCHAR bullet
ENCODING -1
SWIDTH 42 0
DWIDTH 11 0
BBX 6 5 3 2
BITMAP
FC
FC
FC
FC
FC
ENDCHAR
STARTCHAR tilde
ENCODING -1
SWIDTH 42 0
DWIDTH 11 0
BBX 6 2 3 12
BITMAP
F4
BC
ENDCHAR
STARTCHAR circumflex
ENCODING -1
SWIDTH 42 0
DWIDTH 11 0
BBX 6 2 3 12
BITMAP
78
CC
ENDCHAR
STARTCHAR quotedblleft
ENCODING -1
SWIDTH 42 0
DWIDTH 11 0
BBX 7 5 2 9
BITMAP
C6
84
84
C6
C6
ENDCHAR
STARTCHAR quotesingle
ENCODING -1
SWIDTH 42 0
DWIDTH 11 0
BBX 3 5 4 9
BITMAP
E0
E0
E0
40
40
ENDCHAR
STARTCHAR scaron
ENCODING -1
SWIDTH 42 0
DWIDTH 11 0
BBX 8 13 2 0
BITMAP
66
3C
00
3E
C2
C0
E0
7C
1F
07
03
86
FC
ENDCHAR
STARTCHAR ring
ENCODING -1
SWIDTH 42 0
DWIDTH 11 0
BBX 3 3 4 12
BITMAP
E0
A0
E0
ENDCHAR
STARTCHAR quotesinglbase
ENCODING -1
SWIDTH 42 0
DWIDTH 11 0
BBX 3 7 4 -4
BITMAP
E0
E0
E0
20
60
60
C0
ENDCHAR
STARTCHAR florin
ENCODING -1
SWIDTH 42 0
DWIDTH 11 0
BBX 8 17 2 -3
BITMAP
0F
18
18
30
30
30
F8
30
30
70
60
60
60
60
E0
C0
C0
ENDCHAR
STARTCHAR trademark
ENCODING -1
SWIDTH 42 0
DWIDTH 11 0
BBX 11 7 0 7
BITMAP
FE60
2660
2760
27E0
25A0
25A0
2420
ENDCHAR
STARTCHAR fraction
ENCODING -1
SWIDTH 42 0
DWIDTH 11 0
BBX 11 14 0 0
BITMAP
0060
0040
0080
0100
0100
0200
0400
0400
0800
1000
1000
2000
4000
C000
ENDCHAR
STARTCHAR grave
ENCODING -1
SWIDTH 42 0
DWIDTH 11 0
BBX 4 2 4 12
BITMAP
E0
30
ENDCHAR
STARTCHAR perthousand
ENCODING -1
SWIDTH 42 0
DWIDTH 11 0
BBX 13 14 0 0
BITMAP
6100
9200
9200
9400
9400
6800
0800
1000
1630
2948
2948
4948
4948
8630
ENDCHAR
STARTCHAR ellipsis
ENCODING -1
SWIDTH 42 0
DWIDTH 11 0
BBX 9 2 1 0
BITMAP
CD80
CD80
ENDCHAR
STARTCHAR quotedblright
ENCODING -1
SWIDTH 42 0
DWIDTH 11 0
BBX 7 5 2 9
BITMAP
C6
C6
42
42
C6
ENDCHAR
STARTCHAR Scaron
ENCODING -1
SWIDTH 42 0
DWIDTH 11 0
BBX 9 17 1 0
BITMAP
6600
3C00
0000
3F00
6100
C000
C000
E000
7000
3C00
0F00
0380
0180
0180
0180
8300
7E00
ENDCHAR
STARTCHAR quotedblbase
ENCODING -1
SWIDTH 42 0
DWIDTH 11 0
BBX 7 5 2 -3
BITMAP
C6
C6
42
42
C6
ENDCHAR
STARTCHAR zcaron
ENCODING -1
SWIDTH 42 0
DWIDTH 11 0
BBX 9 13 1 0
BITMAP
3300
1E00
0000
FF80
0100
0200
0400
0C00
1800
3000
2000
4000
FF80
ENDCHAR
ENDFONT
